<svg xmlns="http://www.w3.org/2000/svg" viewBox="0 0 128 90"><defs><style>.a{fill:#fff;stroke:#000;stroke-miterlimit:10;}</style></defs><title>mkIII logo</title><path d="M22.87,78.21c0-2.46.74-5.43,1.85-9.37L28,57V38.84L23.19,57.78h-5.7l-.72-2.85L11.64,73.77c-1.85,6.91-3.58,8-10.37,9.26v2H31.38V83C24.35,82.16,22.87,81.67,22.87,78.21Z"/><path d="M19.17,4.42v2c6.91.37,8.88,2.22,8.88,5.3a32.66,32.66,0,0,1-1.6,7.65L19.52,44.8l.84,3.26,3.87-15.12H34.32v1.59L39.53,15.9c2.09-7.53,3.2-8.64,10.12-9.5v-2Z"/><path d="M61.49,78.21c0-2.46.74-5.43,1.85-9.37l3.09-11.06h-.12V32.94h7.07l4.77-17c2.09-7.53,3.2-8.64,10.12-9.5v-2H57.79v2c6.91.37,8.88,2.22,8.88,5.3a32.66,32.66,0,0,1-1.6,7.65l-6.61,24.3,5.31,14.13h-8l-.59-1.94L50.26,73.77c-1.85,6.91-3.58,8-10.37,9.26v2H70V83C63,82.16,61.49,81.67,61.49,78.21Z"/><path d="M100.11,78.21c0-2.46.74-5.43,1.85-9.37l4.88-17.45-2-3.82-4,4.15v6.06H93.23l-4.35,16C87,80.68,85.3,81.79,78.51,83v2h30.11V83C101.59,82.16,100.11,81.67,100.11,78.21Z"/><path d="M96.41,4.42v2c6.91.37,8.88,2.22,8.88,5.3a32.66,32.66,0,0,1-1.6,7.65L100,32.94h.92v9.39l8-9.39h3l4.77-17c2.09-7.53,3.21-8.64,10.12-9.5v-2Z"/><path class="a" d="M6.37,32.94h10.1l3.89,15.12,3.87-15.12H34.32V57.78H28V38.84L23.19,57.78h-5.7L12.66,38.84V57.78H6.37Z"/><path class="a" d="M54.48,53.68H45.77l-1.21,4.1H36.72l9.34-24.84h8.37l9.34,24.84h-8Zm-1.59-5.37-2.74-8.93-2.71,8.93Z"/><path class="a" d="M66.31,57.78V32.94H79.1a18.47,18.47,0,0,1,5.44.61,5.79,5.79,0,0,1,3,2.26,7,7,0,0,1-2.15,10,9.45,9.45,0,0,1-2.7,1,7.63,7.63,0,0,1,2,.91A8.22,8.22,0,0,1,86,49,9.56,9.56,0,0,1,87,50.58l3.72,7.2H82.07L78,50.19a5.84,5.84,0,0,0-1.39-1.91,3.19,3.19,0,0,0-1.88-.58H74V57.78ZM74,43h3.23a12.35,12.35,0,0,0,2-.34,2,2,0,0,0,1.24-.78A2.26,2.26,0,0,0,81,40.45a2.29,2.29,0,0,0-.77-1.85A4.58,4.58,0,0,0,77.39,38H74Z"/><path class="a" d="M93.23,32.94h7.68v9.39l8-9.39h10.21l-9.07,9.38,9.48,15.46h-9.46l-5.23-10.21-4,4.15v6.06H93.23Z"/></svg>